HIERARCHY
ROOT Hips
{
	OFFSET 0.000000 0.000000 0.000000
	CHANNELS 6 Xposition Yposition Zposition Xrotation Yrotation Zrotation
	JOINT LeftUpLeg_virtual
	{
		OFFSET 0.000000 0.000000 0.000000
		CHANNELS 3 Xrotation Yrotation Zrotation
		JOINT LeftUpLeg
		{
			OFFSET 10.205400 -3.823500 0.155100
			CHANNELS 3 Xrotation Yrotation Zrotation
			JOINT LeftLeg
			{
				OFFSET 0.708757 -12.982077 0.567790
				CHANNELS 3 Xrotation Yrotation Zrotation
				JOINT LeftFoot
				{
					OFFSET -0.708756 -10.717838 -2.184338
					CHANNELS 3 Xrotation Yrotation Zrotation
					JOINT LeftToeBase
					{
						OFFSET 0.108149 -7.191104 7.560241
						CHANNELS 3 Xrotation Yrotation Zrotation
						JOINT LeftToe_End
						{
							OFFSET 0.070230 0.081724 4.490308
							CHANNELS 3 Xrotation Yrotation Zrotation
							End Site
							{
								OFFSET 0 0 0
							}
						}
					}
				}
			}
		}
	}
	JOINT RightUpLeg_virtual
	{
		OFFSET 0.000000 0.000000 0.000000
		CHANNELS 3 Xrotation Yrotation Zrotation
		JOINT RightUpLeg
		{
			OFFSET -10.205400 -3.823500 0.005500
			CHANNELS 3 Xrotation Yrotation Zrotation
			JOINT RightLeg
			{
				OFFSET -0.708756 -12.982134 0.610632
				CHANNELS 3 Xrotation Yrotation Zrotation
				JOINT RightFoot
				{
					OFFSET 0.708754 -10.717769 -1.945823
					CHANNELS 3 Xrotation Yrotation Zrotation
					JOINT RightToeBase
					{
						OFFSET -0.108140 -7.191069 7.372968
						CHANNELS 3 Xrotation Yrotation Zrotation
						JOINT RightToe_End
						{
							OFFSET -0.070227 0.081735 4.479403
							CHANNELS 3 Xrotation Yrotation Zrotation
							End Site
							{
								OFFSET 0 0 0
							}
						}
					}
				}
			}
		}
	}
	JOINT Spine_virtual
	{
		OFFSET 0.000000 0.000000 0.000000
		CHANNELS 3 Xrotation Yrotation Zrotation
		JOINT Spine
		{
			OFFSET 0.000000 6.876099 0.125700
			CHANNELS 3 Xrotation Yrotation Zrotation
			JOINT Spine1
			{
				OFFSET 0.000000 5.730043 0.104720
				CHANNELS 3 Xrotation Yrotation Zrotation
				JOINT Spine1_split
				{
					OFFSET 0.000000 5.730043 0.104720
					CHANNELS 3 Xrotation Yrotation Zrotation
					JOINT Spine2
					{
						OFFSET 0.000000 5.730043 0.104720
						CHANNELS 3 Xrotation Yrotation Zrotation
						JOINT Neck_virtual
						{
							OFFSET 0.000000 0.000000 0.000000
							CHANNELS 3 Xrotation Yrotation Zrotation
							JOINT Neck
							{
								OFFSET 0.000000 10.314075 0.188496
								CHANNELS 3 Xrotation Yrotation Zrotation
								JOINT Head
								{
									OFFSET 0.000000 7.643700 -2.377400
									CHANNELS 3 Xrotation Yrotation Zrotation
									JOINT HeadTop_End
									{
										OFFSET 0.000000 43.788605 -13.619600
										CHANNELS 3 Xrotation Yrotation Zrotation
										End Site
										{
											OFFSET 0 0 0
										}
									}
								}
							}
						}
						JOINT LeftShoulder_virtual
						{
							OFFSET 0.000000 0.000000 0.000000
							CHANNELS 3 Xrotation Yrotation Zrotation
							JOINT LeftShoulder
							{
								OFFSET 2.196100 4.412489 0.087492
								CHANNELS 3 Xrotation Yrotation Zrotation
								JOINT LeftShoulder_split
								{
									OFFSET 2.196100 4.412489 0.087492
									CHANNELS 3 Xrotation Yrotation Zrotation
									JOINT LeftArm
									{
										OFFSET 8.771219 -2.981674 -0.026999
										CHANNELS 3 Xrotation Yrotation Zrotation
										JOINT LeftForeArm
										{
											OFFSET 8.512804 0.000000 -0.000000
											CHANNELS 3 Xrotation Yrotation Zrotation
											JOINT LeftHand
											{
												OFFSET 18.484802 0.000000 -0.000000
												CHANNELS 3 Xrotation Yrotation Zrotation
												End Site
												{
													OFFSET 0 0 0
												}
											}
										}
									}
								}
							}
						}
						JOINT RightShoulder_virtual
						{
							OFFSET 0.000000 0.000000 0.000000
							CHANNELS 3 Xrotation Yrotation Zrotation
							JOINT RightShoulder
							{
								OFFSET -2.196100 4.412496 0.070690
								CHANNELS 3 Xrotation Yrotation Zrotation
								JOINT RightShoulder_split
								{
									OFFSET -2.196100 4.412496 0.070690
									CHANNELS 3 Xrotation Yrotation Zrotation
									JOINT RightArm
									{
										OFFSET -8.771282 -2.981682 -0.094208
										CHANNELS 3 Xrotation Yrotation Zrotation
										JOINT RightForeArm
										{
											OFFSET -8.494598 0.000000 0.000000
											CHANNELS 3 Xrotation Yrotation Zrotation
											JOINT RightHand
											{
												OFFSET -18.483803 0.000000 0.000001
												CHANNELS 3 Xrotation Yrotation Zrotation
												End Site
												{
													OFFSET 0 0 0
												}
											}
										}
									}
								}
							}
						}
					}
				}
			}
		}
	}
}
MOTION
Frames: 10
Frame Time: 0.03333333
22.633123 33.190697 64.952309 0.000000 0.000000 0.000000 -8.888772 38.761515 10.339592 -18.794688 4.006735 -18.475026 34.491479 8.248953 1.889130 15.453436 -5.416429 21.458038 -28.797396 2.861387 1.990406 0.000000 0.000000 0.000000 -7.466274 39.070881 9.492699 -19.514988 12.492810 -5.443493 46.570006 6.267744 8.170522 13.439009 -19.685199 4.389421 -33.455564 7.114268 0.687678 0.000000 0.000000 0.000000 -9.521391 40.835041 9.875521 7.077112 -6.037663 -1.982298 -1.902976 -1.445080 1.032241 0.025348 -0.000474 0.036901 0.000000 0.000000 0.000000 -0.284598 0.590323 2.166502 -9.830134 6.909787 5.435993 -8.769116 -9.515101 -24.407100 0.000000 0.000000 0.000000 -3.008650 -0.351779 1.289913 1.757446 0.374188 -5.961575 1.675664 -0.529705 -3.163402 11.059580 6.036285 -62.878496 19.885642 -37.279480 7.151465 0.000000 0.000000 0.000000 -1.441163 -0.763931 1.969028 1.119049 3.018310 -1.578789 -17.574376 -3.417398 1.152437 11.652189 1.944588 65.860994 -1.886916 18.962168 14.573967 0.000000 0.000000 0.000000 
23.305157 33.607723 66.026276 0.000000 0.000000 0.000000 -9.238649 42.342498 10.393123 -14.653879 1.637423 -19.621392 33.097109 8.530552 2.952481 11.531235 -4.369135 22.099793 -27.895635 2.941732 1.257284 0.000000 0.000000 0.000000 -7.541711 41.764380 9.272096 -25.280741 13.282035 -5.774670 43.238571 4.743857 7.950142 14.937267 -19.857769 1.092757 -26.533169 7.177168 0.470406 0.000000 0.000000 0.000000 -10.126882 43.653057 10.240341 7.988633 -6.883375 -1.642146 -2.333898 -1.732136 1.249360 0.078696 -0.033004 0.000636 0.000000 0.000000 0.000000 -0.251364 0.288806 2.400658 -10.049655 6.700737 5.557279 -10.086069 -9.040906 -24.393423 0.000000 0.000000 0.000000 -3.173678 -0.698498 1.410586 1.802598 -0.630649 -5.921284 1.190457 0.885871 -3.064912 9.940770 2.881609 -61.551363 19.888676 -36.972599 7.639085 0.000000 0.000000 0.000000 -1.683498 -1.056814 2.261923 0.988182 2.216365 -0.425341 -18.132378 -3.471960 0.176694 12.400576 0.661780 66.509753 -1.140679 18.693786 13.895320 0.000000 0.000000 0.000000 
24.003687 34.028934 67.032616 0.000000 0.000000 0.000000 -9.299907 45.885009 10.488104 -10.546487 0.182469 -20.052853 30.699658 8.004284 3.559867 7.599232 -4.590190 23.008822 -26.599045 2.897267 0.788428 0.000000 0.000000 0.000000 -7.576283 44.925638 9.194475 -29.200722 12.703399 -6.480322 37.780266 3.675210 7.048767 17.657096 -18.925858 0.265371 -20.245282 7.551919 -1.053034 0.000000 0.000000 0.000000 -10.897757 46.741792 10.858022 8.543090 -7.627859 -1.703882 -2.630690 -1.987344 1.482357 0.134393 -0.092887 -0.026753 0.000000 0.000000 0.000000 -0.243674 0.052146 2.609648 -10.038496 6.413646 5.856348 -10.899331 -8.834440 -24.303843 0.000000 0.000000 0.000000 -3.256289 -0.993513 1.545149 1.833828 -1.583120 -5.916693 0.723440 1.969280 -2.741078 8.483585 -0.171625 -60.219845 19.890546 -36.691110 7.998646 0.000000 0.000000 0.000000 -1.814163 -1.285958 2.543609 0.907644 1.370890 1.175051 -18.711706 -3.475472 -0.634300 13.026515 -0.768019 66.724678 -0.633685 18.698684 13.561780 0.000000 0.000000 0.000000 
24.733555 34.411350 67.970543 0.000000 0.000000 0.000000 -9.171875 49.276775 10.643893 -7.000258 -0.795664 -19.512700 28.095963 6.001203 3.601664 5.968888 -6.205684 22.752598 -27.418941 2.641978 0.849946 0.000000 0.000000 0.000000 -7.778382 48.739554 9.412970 -31.420400 10.870970 -7.479400 31.161331 3.108501 5.809804 21.246873 -16.997981 1.723571 -15.080279 8.047224 -3.824658 0.000000 0.000000 0.000000 -11.537184 50.058269 11.532891 8.765065 -8.289690 -2.169849 -2.754301 -2.219357 1.753396 0.156506 -0.146823 -0.026144 0.000000 0.000000 0.000000 -0.227449 -0.113382 2.812441 -9.809356 6.099268 6.335686 -11.262146 -8.688620 -24.044136 0.000000 0.000000 0.000000 -3.276577 -1.226607 1.732942 1.822229 -2.421810 -5.826492 0.347774 2.607793 -2.355818 6.711003 -2.700482 -59.108853 20.037844 -37.037821 8.360575 0.000000 0.000000 0.000000 -1.872355 -1.470547 2.837570 0.915784 0.411686 3.025791 -19.206290 -3.404227 -1.164917 13.590123 -2.283812 66.317018 -0.452716 18.943198 13.625300 0.000000 0.000000 0.000000 
25.424433 34.716995 68.901878 0.000000 0.000000 0.000000 -8.820794 52.381216 10.627740 -3.969968 -1.600232 -18.259568 26.206239 3.234400 2.897020 7.016384 -8.397607 22.305378 -30.423367 2.275346 0.843159 0.000000 0.000000 0.000000 -8.146322 52.915900 9.770121 -32.406809 8.033853 -8.658332 24.767574 2.915320 4.578061 25.356377 -14.202576 5.180249 -11.642308 8.563719 -7.440303 0.000000 0.000000 0.000000 -11.854978 53.316655 12.038173 8.696118 -8.880563 -2.860415 -2.726770 -2.425425 2.089087 0.138974 -0.160866 -0.014844 0.000000 0.000000 0.000000 -0.190507 -0.241687 3.025435 -9.462588 5.844780 6.934408 -11.340160 -8.462202 -23.592045 0.000000 0.000000 0.000000 -3.262332 -1.407691 1.988841 1.772109 -3.142044 -5.572812 0.251180 2.681962 -1.969016 4.810841 -4.468307 -58.306265 20.441011 -38.204110 8.850094 0.000000 0.000000 0.000000 -1.844424 -1.631927 3.163935 1.009486 -0.645587 4.977889 -19.534775 -3.158321 -1.529670 14.098587 -3.690271 65.288904 -0.587740 19.372628 14.029421 0.000000 0.000000 0.000000 
26.108131 34.894367 69.907845 0.000000 0.000000 0.000000 -8.339810 55.377377 10.444192 -1.473611 -2.193434 -16.373785 25.302349 0.460089 1.716665 9.516882 -10.540487 22.247784 -34.849988 2.105275 0.329774 0.000000 0.000000 0.000000 -8.463074 56.760033 10.071379 -32.830462 4.720307 -9.775203 19.556800 2.766185 3.461144 28.827326 -11.258507 9.520186 -9.590496 9.032135 -11.266325 0.000000 0.000000 0.000000 -11.793222 56.236680 12.277882 8.427192 -9.396169 -3.605416 -2.569237 -2.622685 2.482633 0.144456 -0.160548 -0.001368 0.000000 0.000000 0.000000 -0.110866 -0.353878 3.268694 -9.077642 5.706728 7.587450 -11.466420 -8.076957 -23.024988 0.000000 0.000000 0.000000 -3.259415 -1.565559 2.309176 1.709604 -3.739981 -5.143227 0.214987 2.307361 -1.769904 3.007619 -5.356710 -57.930898 20.965013 -39.712072 9.374355 0.000000 0.000000 0.000000 -1.775378 -1.804228 3.533951 1.237238 -1.712337 6.838579 -19.707153 -3.004252 -1.601843 14.545958 -4.823821 63.854441 -0.964264 19.950889 14.622095 0.000000 0.000000 0.000000 
26.791227 34.897316 71.024567 0.000000 0.000000 0.000000 -8.104196 58.356337 10.401214 0.727802 -2.501290 -14.100876 25.159569 -1.608395 0.667597 11.327062 -12.217914 22.381555 -39.735408 2.299380 -0.616493 0.000000 0.000000 0.000000 -8.691103 59.836166 10.222561 -33.135659 1.620710 -10.566113 16.175239 2.272958 2.424094 30.750765 -9.461725 12.913385 -7.596361 9.317064 -14.785276 0.000000 0.000000 0.000000 -11.732601 58.726062 12.490376 8.066121 -9.888576 -4.278585 -2.388823 -2.800924 2.891022 0.135411 -0.155984 -0.014507 0.000000 0.000000 0.000000 0.026368 -0.485685 3.556263 -8.674442 5.693724 8.156340 -11.665147 -7.661997 -22.446691 0.000000 0.000000 0.000000 -3.303030 -1.725441 2.660624 1.682236 -4.058043 -4.573172 0.148799 1.656524 -1.830371 1.506591 -5.491830 -58.031063 21.479968 -41.093550 9.890229 0.000000 0.000000 0.000000 -1.742606 -2.001995 3.938416 1.542373 -2.681470 8.409896 -19.627933 -2.856495 -1.385756 14.848725 -5.506291 62.315204 -1.479704 20.597267 15.198071 0.000000 0.000000 0.000000 
27.467766 34.730183 72.246910 0.000000 0.000000 0.000000 -8.156989 60.893677 10.489218 3.462539 -2.563957 -11.988975 25.216550 -2.301321 -0.087017 10.162650 -13.043132 23.141005 -43.741112 2.875524 -1.857511 0.000000 0.000000 0.000000 -8.749067 61.880612 10.237870 -33.658592 -0.582948 -10.971586 15.171495 1.341320 1.525761 31.302026 -9.224702 14.811383 -5.376406 9.355999 -17.573564 0.000000 0.000000 0.000000 -11.755236 60.534054 12.690497 7.532508 -10.349526 -4.781936 -2.280519 -2.960319 3.252336 0.124766 -0.153659 -0.035298 0.000000 0.000000 0.000000 0.144771 -0.646134 3.862539 -8.331611 5.769296 8.510645 -11.915447 -7.478573 -21.952911 0.000000 0.000000 0.000000 -3.441532 -1.892652 3.004135 1.699786 -4.012953 -3.931923 0.057418 0.868455 -2.044255 0.607891 -5.146627 -58.570108 21.838644 -41.930630 10.266538 0.000000 0.000000 0.000000 -1.805813 -2.219597 4.326133 1.896167 -3.475120 9.590900 -19.412636 -2.794795 -1.139207 14.942413 -5.760246 61.107927 -1.989651 21.214469 15.568778 0.000000 0.000000 0.000000 
28.148310 34.436165 73.528961 0.000000 0.000000 0.000000 -8.855280 62.664513 11.063963 6.447776 -2.705162 -10.017712 25.581983 -2.581776 -0.326952 6.800128 -13.426278 22.718560 -46.785563 3.534717 -2.571241 0.000000 0.000000 0.000000 -8.785058 62.905469 10.267663 -34.894245 -1.191252 -10.955384 16.616032 0.329079 0.828168 31.222810 -9.815945 15.856330 -3.904759 9.294290 -19.402646 0.000000 0.000000 0.000000 -11.707805 61.750914 12.705080 6.865099 -10.739400 -5.059435 -2.308777 -3.088460 3.495085 0.125219 -0.152916 -0.061859 0.000000 0.000000 0.000000 0.151902 -0.820284 4.163274 -8.055599 5.888833 8.566405 -12.108213 -7.769935 -21.571344 0.000000 0.000000 0.000000 -3.674961 -2.056071 3.275301 1.762219 -3.527057 -3.330783 -0.077022 0.190765 -2.267576 0.547700 -4.653405 -59.491679 21.906496 -42.065899 10.330152 0.000000 0.000000 0.000000 -2.004287 -2.437719 4.628502 2.257242 -4.023476 10.245151 -19.175939 -2.956066 -0.696933 14.933387 -5.724230 60.582111 -2.376567 21.652220 15.577749 0.000000 0.000000 0.000000 
28.785946 34.076302 74.798584 0.000000 0.000000 0.000000 -10.025639 63.398526 11.871997 9.204160 -3.147301 -8.299354 26.261616 -2.469993 -0.101101 3.102112 -13.291966 21.626283 -48.578365 3.906487 -2.558587 0.000000 0.000000 0.000000 -9.205364 63.280828 10.522236 -36.729810 -0.091063 -10.450755 20.446899 -0.406498 0.463171 31.519090 -10.165050 16.661676 -4.279031 9.415204 -20.229258 0.000000 0.000000 0.000000 -11.717240 62.477776 12.492967 6.051774 -10.997784 -5.037219 -2.545086 -3.162628 3.578625 0.096510 -0.127432 -0.086796 0.000000 0.000000 0.000000 -0.021432 -0.993231 4.400349 -7.817179 6.006940 8.307131 -12.028892 -8.667479 -21.224492 0.000000 0.000000 0.000000 -4.001305 -2.187441 3.421031 1.868102 -2.626550 -2.851786 -0.085518 -0.468327 -2.292915 1.409936 -4.440886 -60.598347 21.652883 -41.561083 9.945724 0.000000 0.000000 0.000000 -2.302674 -2.617267 4.780262 2.584318 -4.351206 10.362573 -18.847948 -3.208134 -0.347002 14.952124 -5.593493 60.907577 -2.572905 21.792096 15.217088 0.000000 0.000000 0.000000 
